<svg width="20" height="20" viewBox="0 0 20 20" fill="none" xmlns="http://www.w3.org/2000/svg">
<path d="M14.9434 4.42656C14.9741 4.29771 15.0049 4.16885 15.044 4.04254L14.1764 5.29065C14.2477 5.36386 14.3009 5.3713 14.3929 5.32667C14.6681 5.19317 14.8044 4.96101 14.8799 4.68147C14.9027 4.597 14.923 4.51178 14.9434 4.42656ZM14.1973 5.84649C14.2718 5.85849 14.3406 5.85571 14.4014 5.84558C14.3635 5.98888 14.3908 6.12908 14.449 6.23662C14.4997 6.33039 14.5692 6.38994 14.5854 6.40379C14.5861 6.40438 14.5867 6.40489 14.5872 6.40532C14.5924 6.40984 14.5965 6.41335 14.5995 6.416C14.6852 6.50308 14.7713 6.58889 14.8553 6.67251L14.8675 6.68464C14.9599 6.77666 15.0497 6.86619 15.1379 6.95649C15.3016 7.12423 15.3649 7.30185 15.3649 7.45938C15.3649 7.61698 15.3016 7.79526 15.1374 7.96399C15.1163 7.98568 15.0955 8.00706 15.075 8.02815C14.9357 8.17158 14.8095 8.30153 14.6754 8.42289C14.5821 8.50726 14.4706 8.6429 14.4425 8.84122C14.4169 9.02308 14.4755 9.17218 14.5097 9.24894L14.5097 9.24898C14.9467 10.23 15.1572 11.2536 15.1244 12.3207C15.0534 14.6161 14.1289 16.4762 12.3491 17.9228C11.2903 18.7833 10.0642 19.2756 8.69566 19.4554C8.69333 19.4554 8.68912 19.4554 8.68256 19.4553C8.67371 19.4552 8.62214 19.4535 8.58311 19.4543C8.52244 19.4556 8.43059 19.4621 8.32843 19.4978H7.1856C7.0288 19.4532 6.87823 19.431 6.75181 19.4147C6.71329 19.4097 6.67767 19.4053 6.6442 19.4012C6.53656 19.3879 6.45112 19.3774 6.36272 19.3589L6.36216 19.3588C3.45087 18.7525 1.23509 16.5333 0.645942 13.6297C-0.137142 9.76926 2.30963 5.94075 6.11614 5.0662L6.11616 5.0662C7.71035 4.69987 9.25546 4.82865 10.751 5.48994L10.7519 5.49033C10.829 5.52426 10.9777 5.58191 11.1588 5.55575C11.3551 5.5274 11.4893 5.41734 11.5724 5.32701L11.5732 5.32617C11.7281 5.15702 11.8956 4.99301 12.0717 4.82613C12.3422 4.57005 12.7355 4.57068 13.0022 4.82492L13.0023 4.82499C13.2779 5.0876 13.547 5.36047 13.8179 5.63916L13.8181 5.63938C13.8849 5.70798 14.0089 5.81613 14.1973 5.84649ZM15.2026 6.34392C15.2038 6.34312 15.2051 6.34231 15.2063 6.34151C15.2045 6.34273 15.2032 6.34353 15.2026 6.34392Z" fill="#E06D6D" stroke="#E76D6D"/>
<mask id="path-2-inside-1_8_5126" fill="white">
<path d="M20.0003 3.63236C19.8962 3.84338 19.729 3.91973 19.4937 3.90955C19.1496 3.89467 18.8043 3.9072 18.4597 3.90524C18.2084 3.90367 18.0475 3.74903 18.0475 3.51491C18.0475 3.28119 18.2084 3.12654 18.4601 3.12498C18.805 3.12302 19.1503 3.13555 19.4941 3.12067C19.7294 3.11049 19.8966 3.18683 20.0003 3.39785V3.63236Z"/>
</mask>
<path d="M20.0003 3.63236C19.8962 3.84338 19.729 3.91973 19.4937 3.90955C19.1496 3.89467 18.8043 3.9072 18.4597 3.90524C18.2084 3.90367 18.0475 3.74903 18.0475 3.51491C18.0475 3.28119 18.2084 3.12654 18.4601 3.12498C18.805 3.12302 19.1503 3.13555 19.4941 3.12067C19.7294 3.11049 19.8966 3.18683 20.0003 3.39785V3.63236Z" fill="#E06D6D"/>
<path d="M20.0003 3.63236L20.897 4.07491L21.0003 3.86568V3.63236H20.0003ZM19.4937 3.90955L19.5369 2.91048L19.5369 2.91048L19.4937 3.90955ZM18.4597 3.90524L18.4535 4.90522L18.4541 4.90522L18.4597 3.90524ZM18.4601 3.12498L18.4545 2.12499L18.4539 2.125L18.4601 3.12498ZM19.4941 3.12067L19.4509 2.1216L19.4508 2.12161L19.4941 3.12067ZM20.0003 3.39785H21.0003V3.16532L20.8977 2.95664L20.0003 3.39785ZM19.1036 3.18981C19.1286 3.13903 19.1981 3.03842 19.3316 2.9684C19.3906 2.93741 19.4436 2.9226 19.4812 2.91586C19.4995 2.91258 19.5138 2.91129 19.5229 2.91077C19.5276 2.91051 19.5311 2.91045 19.5334 2.91044C19.5357 2.91043 19.5369 2.91048 19.5369 2.91048L19.4505 4.90861C19.6807 4.91857 19.9721 4.89088 20.2608 4.73941C20.5627 4.58101 20.7678 4.33672 20.897 4.07491L19.1036 3.18981ZM19.5369 2.91048C19.1726 2.89473 18.7491 2.90687 18.4654 2.90526L18.4541 4.90522C18.8595 4.90753 19.1266 4.89461 19.4505 4.90861L19.5369 2.91048ZM18.466 2.90526C18.5441 2.90575 18.7021 2.9335 18.8484 3.07258C19 3.21672 19.0475 3.39407 19.0475 3.51491H17.0475C17.0475 3.86988 17.1754 4.24161 17.4703 4.52199C17.7599 4.79731 18.124 4.90317 18.4535 4.90522L18.466 2.90526ZM19.0475 3.51491C19.0475 3.63644 18.9997 3.81402 18.848 3.95807C18.7017 4.09697 18.5439 4.12447 18.4663 4.12496L18.4539 2.125C18.1246 2.12704 17.7605 2.23265 17.4709 2.5077C17.1758 2.78789 17.0475 3.15966 17.0475 3.51491H19.0475ZM18.4658 4.12496C18.7498 4.12335 19.1734 4.13549 19.5373 4.11973L19.4508 2.12161C19.1273 2.13561 18.8603 2.12269 18.4545 2.12499L18.4658 4.12496ZM19.5373 4.11974C19.5373 4.11974 19.5361 4.11979 19.5338 4.11978C19.5315 4.11977 19.528 4.1197 19.5233 4.11944C19.5141 4.11893 19.4999 4.11763 19.4816 4.11435C19.4439 4.10761 19.3909 4.09278 19.3317 4.06171C19.1979 3.99146 19.1281 3.89042 19.1029 3.83906L20.8977 2.95664C20.7687 2.69427 20.5635 2.44954 20.2614 2.29091C19.9726 2.13931 19.6811 2.11165 19.4509 2.1216L19.5373 4.11974ZM19.0003 3.39785V3.63236H21.0003V3.39785H19.0003Z" fill="#E76D6D" mask="url(#path-2-inside-1_8_5126)"/>
<path d="M18.6406 1.19121L18.6406 1.19128L18.6406 1.19121Z" fill="#E06D6D" stroke="#E76D6D"/>
<mask id="path-5-inside-2_8_5126" fill="white">
<path d="M19.0923 5.72176C19.0739 5.88345 19.0081 6.01147 18.8589 6.08233C18.709 6.1532 18.5583 6.13636 18.4424 6.02596C18.1421 5.73899 17.8457 5.44693 17.5615 5.14429C17.417 4.99083 17.4362 4.78215 17.5736 4.63221C17.7154 4.47796 17.9401 4.43998 18.0975 4.58523C18.4119 4.87572 18.7078 5.18619 19.0073 5.49234C19.0676 5.55381 19.0798 5.64229 19.0919 5.72215L19.0923 5.72176Z"/>
</mask>
<path d="M19.0923 5.72176C19.0739 5.88345 19.0081 6.01147 18.8589 6.08233C18.709 6.1532 18.5583 6.13636 18.4424 6.02596C18.1421 5.73899 17.8457 5.44693 17.5615 5.14429C17.417 4.99083 17.4362 4.78215 17.5736 4.63221C17.7154 4.47796 17.9401 4.43998 18.0975 4.58523C18.4119 4.87572 18.7078 5.18619 19.0073 5.49234C19.0676 5.55381 19.0798 5.64229 19.0919 5.72215L19.0923 5.72176Z" fill="#E06D6D"/>
<path d="M19.0923 5.72176L20.0859 5.83483L20.4092 2.99372L18.3857 5.01411L19.0923 5.72176ZM18.8589 6.08233L19.2862 6.98646L19.2881 6.98559L18.8589 6.08233ZM18.4424 6.02596L17.7515 6.74891L17.7526 6.74998L18.4424 6.02596ZM17.5615 5.14429L18.2904 4.45969L18.2897 4.45887L17.5615 5.14429ZM17.5736 4.63221L16.8373 3.95564L16.8364 3.95657L17.5736 4.63221ZM18.0975 4.58523L18.7761 3.85078L18.7757 3.85036L18.0975 4.58523ZM19.0073 5.49234L18.2925 6.19163L18.2934 6.19259L19.0073 5.49234ZM19.0919 5.72215L18.1032 5.87239L18.4001 7.82601L19.7985 6.4298L19.0919 5.72215ZM18.0987 5.60869C18.1008 5.59022 18.1122 5.51138 18.1718 5.414C18.2383 5.30539 18.3337 5.22475 18.4298 5.17908L19.2881 6.98559C19.8407 6.72306 20.0414 6.22539 20.0859 5.83483L18.0987 5.60869ZM18.4317 5.17821C18.5017 5.14513 18.6187 5.11135 18.7659 5.13035C18.9188 5.15008 19.0457 5.21959 19.1322 5.30194L17.7526 6.74998C18.2039 7.17988 18.8096 7.2117 19.2862 6.98646L18.4317 5.17821ZM19.1333 5.30301C18.8398 5.02251 18.5576 4.74414 18.2904 4.45969L16.8326 5.82889C17.1339 6.14971 17.4444 6.45546 17.7515 6.74891L19.1333 5.30301ZM18.2897 4.45887C18.3982 4.57421 18.469 4.74494 18.4609 4.93034C18.4534 5.10335 18.381 5.23138 18.3109 5.30785L16.8364 3.95657C16.4084 4.42359 16.2692 5.23036 16.8334 5.82972L18.2897 4.45887ZM18.31 5.30878C18.2338 5.39172 18.1104 5.47096 17.9425 5.49003C17.7591 5.51084 17.5627 5.45244 17.4193 5.3201L18.7757 3.85036C18.1158 3.24139 17.2583 3.49738 16.8373 3.95564L18.31 5.30878ZM17.4188 5.31968C17.7092 5.58802 17.9802 5.87243 18.2925 6.19163L19.7222 4.79305C19.4354 4.49994 19.1145 4.16342 18.7761 3.85078L17.4188 5.31968ZM18.2934 6.19259C18.1748 6.07167 18.1279 5.94723 18.1109 5.89104C18.1024 5.8631 18.099 5.84433 18.0987 5.84295C18.0985 5.84181 18.0987 5.84294 18.0995 5.84814C18.1005 5.85437 18.1013 5.85977 18.1032 5.87239L20.0805 5.57192C20.0775 5.55218 20.0618 5.43247 20.0245 5.30965C19.9832 5.17389 19.9001 4.97447 19.7212 4.79209L18.2934 6.19259ZM19.7985 6.4298L19.7989 6.42941L18.3857 5.01411L18.3853 5.01451L19.7985 6.4298Z" fill="#E76D6D" mask="url(#path-5-inside-2_8_5126)"/>
<mask id="path-7-inside-3_8_5126" fill="white">
<path d="M15.0994 2.5342C14.9753 2.52089 14.8755 2.46843 14.7897 2.38191C14.5337 2.12351 14.2733 1.86943 14.0196 1.60947C13.8325 1.41763 13.8278 1.19135 13.9989 1.02457C14.1645 0.862876 14.3861 0.865225 14.5709 1.04414C14.8414 1.30606 15.1072 1.57306 15.3703 1.84281C15.4983 1.97435 15.5418 2.13291 15.4564 2.30595C15.384 2.45277 15.256 2.51971 15.0998 2.5342H15.0994Z"/>
</mask>
<path d="M15.0994 2.5342C14.9753 2.52089 14.8755 2.46843 14.7897 2.38191C14.5337 2.12351 14.2733 1.86943 14.0196 1.60947C13.8325 1.41763 13.8278 1.19135 13.9989 1.02457C14.1645 0.862876 14.3861 0.865225 14.5709 1.04414C14.8414 1.30606 15.1072 1.57306 15.3703 1.84281C15.4983 1.97435 15.5418 2.13291 15.4564 2.30595C15.384 2.45277 15.256 2.51971 15.0998 2.5342H15.0994Z" fill="#E06D6D"/>
<path d="M15.0994 2.5342L14.9928 3.5285L15.0459 3.5342H15.0994V2.5342ZM14.7897 2.38191L14.0794 3.08578L14.0794 3.08579L14.7897 2.38191ZM14.0196 1.60947L13.3038 2.30776L13.304 2.3079L14.0196 1.60947ZM13.9989 1.02457L14.6969 1.74063L14.6975 1.74008L13.9989 1.02457ZM14.5709 1.04414L13.8753 1.76257L13.8753 1.76259L14.5709 1.04414ZM15.3703 1.84281L16.087 1.14536L16.0862 1.14459L15.3703 1.84281ZM15.4564 2.30595L16.3533 2.74838L16.3533 2.74829L15.4564 2.30595ZM15.0998 2.5342V3.5342H15.1461L15.1921 3.52993L15.0998 2.5342ZM15.206 1.5399C15.2575 1.54542 15.3175 1.56112 15.3774 1.59108C15.436 1.62041 15.4765 1.65431 15.5 1.67802L14.0794 3.08579C14.3115 3.31998 14.619 3.48841 14.9928 3.5285L15.206 1.5399ZM15.5 1.67803C15.2231 1.39858 14.9906 1.17259 14.7353 0.911039L13.304 2.3079C13.5561 2.56627 13.8442 2.84845 14.0794 3.08578L15.5 1.67803ZM14.7355 0.911184C14.7739 0.950615 14.868 1.07277 14.8744 1.27627C14.8812 1.4923 14.7841 1.65564 14.6969 1.74063L13.3008 0.308505C13.0426 0.560269 12.8623 0.920151 12.8754 1.33898C12.8882 1.74527 13.0782 2.07649 13.3038 2.30776L14.7355 0.911184ZM14.6975 1.74008C14.6131 1.82252 14.4562 1.91194 14.2501 1.90625C14.0511 1.90075 13.9247 1.81038 13.8753 1.76257L15.2665 0.325711C15.0323 0.0989833 14.7026 -0.082015 14.3053 -0.0929921C13.9008 -0.104169 13.5503 0.0649254 13.3003 0.309053L14.6975 1.74008ZM13.8753 1.76259C14.1372 2.01612 14.396 2.27605 14.6544 2.54103L16.0862 1.14459C15.8185 0.870071 15.5456 0.595998 15.2664 0.32569L13.8753 1.76259ZM14.6537 2.54025C14.6192 2.50483 14.5459 2.41385 14.5144 2.26287C14.4805 2.09995 14.5139 1.95617 14.5596 1.86362L16.3533 2.74829C16.4843 2.48269 16.5387 2.17311 16.4724 1.85477C16.4085 1.54836 16.2495 1.31233 16.087 1.14536L14.6537 2.54025ZM14.5596 1.86353C14.6047 1.77212 14.6829 1.6805 14.7894 1.61564C14.8877 1.55573 14.9719 1.54177 15.0075 1.53847L15.1921 3.52993C15.606 3.49155 16.0915 3.27905 16.3533 2.74838L14.5596 1.86353ZM15.0998 1.5342H15.0994V3.5342H15.0998V1.5342Z" fill="#E76D6D" mask="url(#path-7-inside-3_8_5126)"/>
<mask id="path-9-inside-4_8_5126" fill="white">
<path d="M16.0938 0.976015C16.0938 0.781439 16.0903 0.586862 16.0946 0.392285C16.0997 0.156992 16.2586 0 16.4833 0C16.7069 0 16.8713 0.159733 16.8741 0.393068C16.8784 0.782222 16.8784 1.17137 16.8741 1.56053C16.8713 1.79269 16.7053 1.9532 16.4826 1.9532C16.2582 1.9532 16.0993 1.79543 16.0942 1.56014C16.0899 1.36556 16.0934 1.17098 16.0934 0.976407L16.0938 0.976015Z"/>
</mask>
<path d="M16.0938 0.976015C16.0938 0.781439 16.0903 0.586862 16.0946 0.392285C16.0997 0.156992 16.2586 0 16.4833 0C16.7069 0 16.8713 0.159733 16.8741 0.393068C16.8784 0.782222 16.8784 1.17137 16.8741 1.56053C16.8713 1.79269 16.7053 1.9532 16.4826 1.9532C16.2582 1.9532 16.0993 1.79543 16.0942 1.56014C16.0899 1.36556 16.0934 1.17098 16.0934 0.976407L16.0938 0.976015Z" fill="#E06D6D"/>
<path d="M16.0938 0.976015L16.8006 1.68346L17.0938 1.39051V0.976015H16.0938ZM16.0946 0.392285L17.0943 0.414413L17.0943 0.413911L16.0946 0.392285ZM16.8741 0.393068L17.874 0.382003L17.874 0.381324L16.8741 0.393068ZM16.8741 1.56053L17.874 1.57233L17.874 1.57159L16.8741 1.56053ZM16.0942 1.56014L17.0939 1.53851L17.0939 1.53801L16.0942 1.56014ZM16.0934 0.976407L15.3866 0.268963L15.0934 0.561914V0.976407H16.0934ZM17.0938 0.976015C17.0938 0.756545 17.0903 0.594987 17.0943 0.414413L15.0948 0.370158C15.0902 0.578737 15.0938 0.806332 15.0938 0.976015H17.0938ZM17.0943 0.413911C17.092 0.520706 17.0498 0.678574 16.9147 0.814004C16.7783 0.950843 16.6111 1 16.4833 1V-1C16.1308 -1 15.7719 -0.872347 15.4985 -0.598188C15.2265 -0.325439 15.1022 0.0285721 15.0948 0.37066L17.0943 0.413911ZM16.4833 1C16.3506 1 16.1876 0.948826 16.0559 0.817638C15.9238 0.686102 15.8756 0.526656 15.8741 0.404812L17.874 0.381324C17.8649 -0.392632 17.2616 -1 16.4833 -1V1ZM15.8741 0.404134C15.8783 0.78591 15.8783 1.16769 15.8741 1.54946L17.874 1.57159C17.8784 1.17506 17.8784 0.778533 17.874 0.382003L15.8741 0.404134ZM15.8741 1.54872C15.8756 1.42246 15.926 1.2635 16.0565 1.13408C16.1862 1.00533 16.3477 0.953205 16.4826 0.953205V2.9532C17.2568 2.9532 17.8648 2.34834 17.874 1.57233L15.8741 1.54872ZM16.4826 0.953205C16.6125 0.953205 16.7798 1.00348 16.9155 1.14007C17.0496 1.27498 17.0916 1.43194 17.0939 1.53851L15.0944 1.58176C15.1018 1.92363 15.2259 2.27712 15.4968 2.54974C15.7693 2.82404 16.1283 2.9532 16.4826 2.9532V0.953205ZM17.0939 1.53801C17.0899 1.35743 17.0934 1.19588 17.0934 0.976407H15.0934C15.0934 1.14609 15.0898 1.37369 15.0944 1.58226L17.0939 1.53801ZM16.8002 1.68385L16.8006 1.68346L15.387 0.268572L15.3866 0.268963L16.8002 1.68385Z" fill="#E76D6D" mask="url(#path-9-inside-4_8_5126)"/>
<path d="M5.93875 5.93705C7.54043 5.45236 9.09755 5.58553 10.6214 6.29715C10.718 6.3423 10.8238 6.39061 10.925 6.4226C11.0327 6.45665 11.1719 6.48472 11.3301 6.45751C11.4885 6.43027 11.6108 6.35717 11.7018 6.28805C11.7876 6.22295 11.8718 6.14072 11.9492 6.06338C12.016 5.99649 12.0814 5.93067 12.146 5.86563C12.2773 5.73336 12.4054 5.60432 12.5367 5.47617C13.2002 6.13574 13.8617 6.79719 14.5218 7.46018C14.3794 7.60551 14.2359 7.74835 14.0899 7.89369C14.0271 7.95623 13.9638 8.01923 13.9 8.08309L13.8997 8.08334L13.8934 8.08965C13.7769 8.2062 13.5867 8.39661 13.5398 8.66615C13.4925 8.93757 13.6092 9.18058 13.6799 9.32775L13.6836 9.33559C14.1436 10.295 14.3632 11.3037 14.3428 12.3666C14.2862 15.2862 12.1502 17.8989 9.29621 18.5385L9.29608 18.5385C9.27142 18.544 9.2474 18.5495 9.22394 18.5548C9.06165 18.5915 8.9261 18.6221 8.78905 18.6397L8.78859 18.6397C8.45121 18.6834 8.12319 18.7138 7.79906 18.7167L7.77183 18.7169C4.69316 18.6969 2.02054 16.4989 1.42503 13.4993L1.42503 13.4992C0.760195 10.1514 2.68508 6.92206 5.93875 5.93705ZM5.93875 5.93705L5.79393 5.45848L5.93875 5.93705Z" fill="#E06D6D" stroke="#E76D6D"/>
<mask id="path-12-inside-5_8_5126" fill="white">
<path d="M5.08142 7.22945C5.09121 7.37274 5.02035 7.48627 4.89859 7.56379C4.30546 7.94081 3.80669 8.41688 3.38543 8.9779C3.2394 9.17208 2.99197 9.20497 2.81932 9.07343C2.63531 8.93288 2.60713 8.71403 2.75825 8.50496C3.22335 7.86094 3.79299 7.32576 4.46715 6.90529C4.75138 6.72794 5.07868 6.90098 5.08181 7.22945H5.08142Z"/>
</mask>
<path d="M5.08142 7.22945C5.09121 7.37274 5.02035 7.48627 4.89859 7.56379C4.30546 7.94081 3.80669 8.41688 3.38543 8.9779C3.2394 9.17208 2.99197 9.20497 2.81932 9.07343C2.63531 8.93288 2.60713 8.71403 2.75825 8.50496C3.22335 7.86094 3.79299 7.32576 4.46715 6.90529C4.75138 6.72794 5.07868 6.90098 5.08181 7.22945H5.08142Z" fill="#E06D6D"/>
<path d="M5.08142 7.22945V6.22945H4.01078L4.08375 7.2976L5.08142 7.22945ZM4.89859 7.56379L5.43503 8.40773L5.43564 8.40734L4.89859 7.56379ZM3.38543 8.9779L4.18466 9.57893L4.1851 9.57835L3.38543 8.9779ZM2.81932 9.07343L2.21231 9.86812L2.21328 9.86886L2.81932 9.07343ZM2.75825 8.50496L3.56868 9.09079L3.56894 9.09044L2.75825 8.50496ZM4.46715 6.90529L4.99636 7.75378L4.99652 7.75368L4.46715 6.90529ZM5.08181 7.22945V8.22945H6.09139L6.08177 7.21991L5.08181 7.22945ZM4.08375 7.2976C4.07559 7.17828 4.10218 7.04679 4.16922 6.92843C4.23251 6.8167 4.31121 6.75228 4.36154 6.72024L5.43564 8.40734C5.80161 8.17434 6.11866 7.74049 6.0791 7.1613L4.08375 7.2976ZM4.36215 6.71986C3.65867 7.16701 3.07296 7.72862 2.58577 8.37745L4.1851 9.57835C4.54042 9.10513 4.95225 8.7146 5.43503 8.40773L4.36215 6.71986ZM2.58621 8.37687C2.75169 8.15682 3.12831 8.05167 3.42536 8.27799L2.21328 9.86886C2.85563 10.3583 3.72712 10.1874 4.18466 9.57893L2.58621 8.37687ZM3.42633 8.27873C3.52079 8.35088 3.63324 8.49494 3.65674 8.70223C3.67928 8.90101 3.60685 9.03798 3.56868 9.09079L1.94781 7.91914C1.75852 8.18101 1.62462 8.53194 1.66948 8.92754C1.71529 9.33166 1.93385 9.65542 2.21231 9.86812L3.42633 8.27873ZM3.56894 9.09044C3.95923 8.55001 4.43374 8.10468 4.99636 7.75378L3.93795 6.05679C3.15223 6.54684 2.48747 7.17188 1.94755 7.91949L3.56894 9.09044ZM4.99652 7.75368C4.85589 7.84142 4.6297 7.87638 4.41309 7.76204C4.19278 7.64576 4.08365 7.42709 4.08186 7.23898L6.08177 7.21991C6.07684 6.70334 5.80249 6.23391 5.3467 5.99333C4.8946 5.75469 4.36264 5.7918 3.93778 6.05689L4.99652 7.75368ZM5.08181 6.22945H5.08142V8.22945H5.08181V6.22945Z" fill="#E76D6D" mask="url(#path-12-inside-5_8_5126)"/>
<path d="M6.30372 6.41332C6.30513 6.41334 6.30651 6.41339 6.30788 6.41345C6.3079 6.41345 6.30792 6.41346 6.30794 6.41346C6.33995 6.41502 6.36245 6.42877 6.37543 6.44198C6.38866 6.45544 6.4062 6.48326 6.40601 6.52506C6.40601 6.52509 6.40601 6.52513 6.40601 6.52516C6.406 6.52609 6.40599 6.52703 6.40597 6.52797L6.30612 6.52556L6.30604 6.52556L6.30209 6.52546L6.30213 6.52275L6.30213 6.52262L6.30372 6.41332ZM6.30208 6.52616L6.30603 6.52626L6.30611 6.52627L6.40594 6.52885C6.40492 6.56828 6.38759 6.59419 6.37407 6.60696C6.36054 6.61974 6.33705 6.63267 6.3044 6.63216C6.30436 6.63216 6.30433 6.63216 6.30429 6.63216C6.30304 6.63213 6.30179 6.63209 6.30054 6.63202L6.30208 6.52616ZM6.30187 6.52616L6.30039 6.63202C6.24605 6.62906 6.19926 6.58417 6.19901 6.52349L6.30187 6.52616ZM6.30188 6.52546L6.19901 6.52297C6.19901 6.52211 6.19902 6.52124 6.19904 6.52036C6.19904 6.52034 6.19904 6.52032 6.19904 6.52029C6.19904 6.52026 6.19904 6.52023 6.19904 6.5202C6.19963 6.497 6.21082 6.46661 6.23564 6.44311C6.26015 6.41989 6.28746 6.4131 6.30346 6.41332L6.30192 6.52261L6.30192 6.52275L6.30188 6.52546Z" fill="#E06D6D" stroke="#E76D6D"/>
</svg>
