<svg width="22" height="22" viewBox="0 0 22 22" fill="none" xmlns="http://www.w3.org/2000/svg">
<path d="M9.745 1.4425C10.435 0.8525 11.565 0.8525 12.265 1.4425L13.845 2.8025C14.145 3.0625 14.705 3.2725 15.105 3.2725H16.805C17.865 3.2725 18.735 4.1425 18.735 5.2025V6.9025C18.735 7.2925 18.945 7.8625 19.205 8.1625L20.565 9.7425C21.155 10.4325 21.155 11.5625 20.565 12.2625L19.205 13.8425C18.945 14.1425 18.735 14.7025 18.735 15.1025V16.8025C18.735 17.8625 17.865 18.7325 16.805 18.7325H15.105C14.715 18.7325 14.145 18.9425 13.845 19.2025L12.265 20.5625C11.575 21.1525 10.445 21.1525 9.745 20.5625L8.165 19.2025C7.865 18.9425 7.305 18.7325 6.905 18.7325H5.175C4.115 18.7325 3.245 17.8625 3.245 16.8025V15.0925C3.245 14.7025 3.035 14.1425 2.785 13.8425L1.435 12.2525C0.855 11.5625 0.855 10.4425 1.435 9.7525L2.785 8.1625C3.035 7.8625 3.245 7.3025 3.245 6.9125V5.2025C3.245 4.1425 4.115 3.2725 5.175 3.2725H6.905C7.295 3.2725 7.865 3.0625 8.165 2.8025L9.745 1.4425Z" fill="#FF7D7D" stroke="#FF9393" stroke-width="1.5" stroke-linecap="round" stroke-linejoin="round"/>
<path d="M10.1143 4.30213C10.5971 3.88928 11.3878 3.88928 11.8777 4.30213L12.9832 5.25377C13.1932 5.4357 13.585 5.58265 13.8649 5.58265H15.0545C15.7962 5.58265 16.405 6.19142 16.405 6.93314V8.12269C16.405 8.39559 16.5519 8.79444 16.7338 9.00436L17.6855 10.1099C18.0983 10.5928 18.0983 11.3835 17.6855 11.8733L16.7338 12.9789C16.5519 13.1888 16.405 13.5806 16.405 13.8605V15.0501C16.405 15.7918 15.7962 16.4006 15.0545 16.4006H13.8649C13.592 16.4006 13.1932 16.5475 12.9832 16.7295L11.8777 17.6811C11.3948 18.094 10.6041 18.094 10.1143 17.6811L9.00874 16.7295C8.79882 16.5475 8.40696 16.4006 8.12707 16.4006H6.91652C6.1748 16.4006 5.56603 15.7918 5.56603 15.0501V13.8535C5.56603 13.5806 5.41908 13.1888 5.24415 12.9789L4.2995 11.8663C3.89366 11.3835 3.89366 10.5998 4.2995 10.1169L5.24415 9.00436C5.41908 8.79444 5.56603 8.40259 5.56603 8.12969V6.93314C5.56603 6.19142 6.1748 5.58265 6.91652 5.58265H8.12707C8.39997 5.58265 8.79882 5.4357 9.00874 5.25377L10.1143 4.30213Z" fill="#FFAC7D"/>
<path d="M10.366 6.21366C10.7108 5.91877 11.2756 5.91877 11.6255 6.21366L12.4152 6.8934C12.5652 7.02336 12.845 7.12832 13.045 7.12832H13.8947C14.4245 7.12832 14.8593 7.56315 14.8593 8.09295V8.94264C14.8593 9.13756 14.9643 9.42246 15.0942 9.5724L15.774 10.3621C16.0688 10.707 16.0688 11.2718 15.774 11.6216L15.0942 12.4113C14.9643 12.5613 14.8593 12.8412 14.8593 13.0411V13.8908C14.8593 14.4206 14.4245 14.8554 13.8947 14.8554H13.045C12.85 14.8554 12.5652 14.9604 12.4152 15.0903L11.6255 15.7701C11.2806 16.065 10.7158 16.065 10.366 15.7701L9.57627 15.0903C9.42633 14.9604 9.14644 14.8554 8.94651 14.8554H8.08183C7.55203 14.8554 7.1172 14.4206 7.1172 13.8908V13.0361C7.1172 12.8412 7.01224 12.5613 6.88728 12.4113L6.21254 11.6166C5.92264 11.2718 5.92264 10.712 6.21254 10.3671L6.88728 9.5724C7.01224 9.42246 7.1172 9.14256 7.1172 8.94763V8.09295C7.1172 7.56315 7.55203 7.12832 8.08183 7.12832H8.94651C9.14144 7.12832 9.42633 7.02336 9.57627 6.8934L10.366 6.21366Z" fill="#F17E3D"/>
</svg>
